<?xml version="1.0" encoding="utf-8"?>
<!-- Generator: Adobe Illustrator 21.1.0, SVG Export Plug-In . SVG Version: 6.00 Build 0)  -->
<svg version="1.1" id="Layer_1" xmlns="http://www.w3.org/2000/svg" xmlns:xlink="http://www.w3.org/1999/xlink" x="0px" y="0px"
	 viewBox="0 0 128.4 40.3" style="enable-background:new 0 0 128.4 40.3;" xml:space="preserve">
<style type="text/css">
	.st0{fill:#9BD4FE;}
	.st1{fill:#7FC7FC;}
	.st2{fill:#64BAF8;}
	.st3{fill:#707070;}
</style>
<g>
	<g id="Group_15" transform="translate(1131 393.162)">
		
			<rect id="Rectangle_6" x="-1125.7" y="-388.8" transform="matrix(0.7071 -0.7071 0.7071 0.7071 -59.1204 -899.4359)" class="st0" width="20.8" height="20.8"/>
		
			<rect id="Rectangle_9" x="-1125.6" y="-378.1" transform="matrix(0.7071 -0.7071 0.7071 0.7071 -66.662 -896.2776)" class="st0" width="20.8" height="20.8"/>
		<g id="Group_12" transform="translate(3.383 3.059)">
			
				<rect id="Rectangle_7" x="-1126.7" y="-389.7" transform="matrix(0.7071 -0.7071 0.7071 0.7071 -57.7321 -902.8358)" class="st1" width="16" height="16"/>
			
				<rect id="Rectangle_10" x="-1126.7" y="-378.4" transform="matrix(0.7071 -0.7071 0.7071 0.7071 -65.7115 -899.5154)" class="st1" width="16" height="16"/>
		</g>
		<g id="Group_13" transform="translate(6.857 6.855)">
			
				<rect id="Rectangle_8" x="-1127.7" y="-390.8" transform="matrix(0.7071 -0.7071 0.7071 0.7071 -56.2787 -906.286)" class="st2" width="11.1" height="11.1"/>
			
				<rect id="Rectangle_11" x="-1127.6" y="-380.1" transform="matrix(0.7071 -0.7071 0.7071 0.7071 -63.8203 -903.1277)" class="st2" width="11.1" height="11.1"/>
		</g>
	</g>
	<g>
		<g>
			<path class="st0" d="M52.3,4.2v15.3h-2.5V9.6c0-0.4,0-0.8,0.1-1.3L45.2,17c-0.2,0.4-0.6,0.6-1,0.6h-0.4c-0.5,0-0.8-0.2-1-0.6
				l-4.7-8.7c0,0.2,0,0.5,0.1,0.7s0,0.4,0,0.6v9.9h-2.5V4.2h2.1c0.1,0,0.2,0,0.3,0c0.1,0,0.2,0,0.2,0.1c0.1,0,0.1,0.1,0.2,0.1
				c0.1,0.1,0.1,0.1,0.2,0.3l4.6,8.5c0.1,0.2,0.2,0.5,0.3,0.7c0.1,0.2,0.2,0.5,0.3,0.7c0.1-0.3,0.2-0.5,0.3-0.8
				c0.1-0.2,0.2-0.5,0.3-0.7l4.5-8.5c0.1-0.1,0.1-0.2,0.2-0.3c0.1-0.1,0.1-0.1,0.2-0.1c0.1,0,0.2,0,0.2-0.1c0.1,0,0.2,0,0.3,0H52.3z
				"/>
			<path class="st0" d="M58.2,5.5c0,0.2,0,0.4-0.1,0.6c-0.1,0.2-0.2,0.4-0.4,0.5c-0.2,0.1-0.3,0.3-0.5,0.4c-0.2,0.1-0.4,0.1-0.7,0.1
				c-0.2,0-0.4,0-0.6-0.1c-0.2-0.1-0.4-0.2-0.5-0.4c-0.1-0.1-0.3-0.3-0.4-0.5c-0.1-0.2-0.1-0.4-0.1-0.6c0-0.2,0-0.5,0.1-0.7
				s0.2-0.4,0.4-0.5c0.1-0.1,0.3-0.3,0.5-0.4c0.2-0.1,0.4-0.1,0.6-0.1c0.2,0,0.4,0,0.7,0.1c0.2,0.1,0.4,0.2,0.5,0.4
				c0.2,0.1,0.3,0.3,0.4,0.5S58.2,5.2,58.2,5.5z M57.8,8.6v10.8h-2.6V8.6H57.8z"/>
			<path class="st0" d="M63.1,3.8v15.7h-2.6V3.8H63.1z"/>
			<path class="st0" d="M67.7,14.4c0,0.6,0.1,1,0.3,1.4c0.2,0.4,0.4,0.7,0.6,1c0.3,0.3,0.6,0.5,0.9,0.6c0.3,0.1,0.7,0.2,1.2,0.2
				s0.8,0,1.1-0.1c0.3-0.1,0.6-0.2,0.8-0.3s0.4-0.2,0.6-0.3c0.2-0.1,0.3-0.1,0.5-0.1c0.2,0,0.4,0.1,0.5,0.2l0.7,0.9
				c-0.3,0.3-0.6,0.6-1,0.8c-0.4,0.2-0.7,0.4-1.1,0.5c-0.4,0.1-0.8,0.2-1.2,0.3c-0.4,0.1-0.8,0.1-1.2,0.1c-0.8,0-1.5-0.1-2.1-0.4
				c-0.6-0.2-1.2-0.6-1.7-1.1c-0.5-0.5-0.9-1.1-1.1-1.8c-0.3-0.7-0.4-1.6-0.4-2.5c0-0.7,0.1-1.4,0.4-2.1c0.2-0.7,0.6-1.2,1-1.7
				c0.4-0.5,1-0.9,1.6-1.1s1.4-0.4,2.2-0.4c0.7,0,1.3,0.1,1.9,0.3c0.6,0.2,1.1,0.5,1.5,1c0.4,0.4,0.7,0.9,1,1.5
				c0.2,0.6,0.4,1.3,0.4,2.1c0,0.4,0,0.7-0.1,0.8c-0.1,0.1-0.2,0.2-0.5,0.2H67.7z M72.7,12.8c0-0.3,0-0.7-0.1-1
				c-0.1-0.3-0.2-0.6-0.4-0.8c-0.2-0.2-0.4-0.4-0.7-0.5c-0.3-0.1-0.6-0.2-1-0.2c-0.8,0-1.3,0.2-1.8,0.6s-0.7,1-0.8,1.8H72.7z"/>
			<path class="st0" d="M83.6,10.7c-0.1,0.1-0.1,0.2-0.2,0.2S83.2,11,83.1,11c-0.1,0-0.3,0-0.4-0.1c-0.1-0.1-0.3-0.1-0.5-0.2
				c-0.2-0.1-0.4-0.2-0.6-0.2c-0.2-0.1-0.5-0.1-0.9-0.1c-0.5,0-0.9,0.1-1.2,0.3c-0.3,0.2-0.4,0.5-0.4,0.9c0,0.2,0.1,0.4,0.2,0.6
				c0.2,0.2,0.4,0.3,0.6,0.4c0.2,0.1,0.5,0.2,0.8,0.3c0.3,0.1,0.6,0.2,1,0.3c0.3,0.1,0.6,0.2,1,0.4c0.3,0.1,0.6,0.3,0.8,0.5
				c0.2,0.2,0.5,0.5,0.6,0.8c0.2,0.3,0.2,0.7,0.2,1.1c0,0.5-0.1,1-0.3,1.4c-0.2,0.4-0.5,0.8-0.8,1.1c-0.4,0.3-0.8,0.6-1.4,0.8
				c-0.5,0.2-1.2,0.3-1.9,0.3c-0.4,0-0.7,0-1.1-0.1c-0.4-0.1-0.7-0.2-1-0.3S77.2,19,77,18.8c-0.3-0.2-0.5-0.3-0.7-0.5l0.6-1
				c0.1-0.1,0.2-0.2,0.3-0.3c0.1-0.1,0.2-0.1,0.4-0.1s0.3,0,0.5,0.1s0.3,0.2,0.5,0.3c0.2,0.1,0.4,0.2,0.7,0.3c0.3,0.1,0.6,0.1,1,0.1
				c0.3,0,0.6,0,0.8-0.1s0.4-0.2,0.5-0.3c0.1-0.1,0.2-0.3,0.3-0.4s0.1-0.3,0.1-0.5c0-0.3-0.1-0.5-0.2-0.6s-0.4-0.3-0.6-0.4
				c-0.2-0.1-0.5-0.2-0.9-0.3c-0.3-0.1-0.6-0.2-1-0.3c-0.3-0.1-0.7-0.2-1-0.4c-0.3-0.2-0.6-0.3-0.9-0.6c-0.2-0.2-0.5-0.5-0.6-0.9
				c-0.2-0.3-0.2-0.7-0.2-1.2c0-0.4,0.1-0.9,0.3-1.3c0.2-0.4,0.4-0.8,0.8-1s0.8-0.5,1.3-0.7c0.5-0.2,1.1-0.3,1.8-0.3
				c0.7,0,1.4,0.1,2,0.4c0.6,0.2,1.1,0.6,1.5,1L83.6,10.7z"/>
			<path class="st0" d="M89.9,19.6c-0.9,0-1.7-0.3-2.2-0.8S87,17.6,87,16.6v-6h-1.1c-0.1,0-0.3,0-0.4-0.1c-0.1-0.1-0.1-0.2-0.1-0.4
				V9l1.7-0.3l0.5-3c0-0.1,0.1-0.2,0.2-0.3c0.1-0.1,0.2-0.1,0.4-0.1h1.4v3.4h2.9v1.9h-2.9v5.9c0,0.3,0.1,0.6,0.2,0.8
				c0.2,0.2,0.4,0.3,0.7,0.3c0.2,0,0.3,0,0.4-0.1c0.1,0,0.2-0.1,0.3-0.1c0.1,0,0.2-0.1,0.2-0.1s0.1-0.1,0.2-0.1c0.1,0,0.1,0,0.2,0.1
				s0.1,0.1,0.2,0.2l0.8,1.3c-0.4,0.3-0.8,0.6-1.3,0.7S90.4,19.6,89.9,19.6z"/>
			<path class="st0" d="M98.8,8.5c0.8,0,1.5,0.1,2.2,0.4c0.7,0.3,1.2,0.6,1.7,1.1c0.5,0.5,0.8,1.1,1.1,1.8c0.3,0.7,0.4,1.5,0.4,2.3
				c0,0.9-0.1,1.6-0.4,2.3c-0.3,0.7-0.6,1.3-1.1,1.8c-0.5,0.5-1,0.9-1.7,1.1c-0.7,0.3-1.4,0.4-2.2,0.4c-0.8,0-1.5-0.1-2.2-0.4
				c-0.7-0.3-1.2-0.6-1.7-1.1c-0.5-0.5-0.8-1.1-1.1-1.8c-0.3-0.7-0.4-1.5-0.4-2.3c0-0.9,0.1-1.6,0.4-2.3s0.6-1.3,1.1-1.8
				s1-0.8,1.7-1.1S98,8.5,98.8,8.5z M98.8,17.6c0.9,0,1.6-0.3,2-0.9c0.4-0.6,0.6-1.5,0.6-2.7s-0.2-2.1-0.6-2.7
				c-0.4-0.6-1.1-0.9-2-0.9c-0.9,0-1.6,0.3-2,0.9s-0.7,1.5-0.7,2.7s0.2,2,0.7,2.7C97.2,17.3,97.9,17.6,98.8,17.6z"/>
			<path class="st0" d="M108.6,10c0.2-0.2,0.4-0.4,0.7-0.6c0.2-0.2,0.5-0.3,0.8-0.5s0.6-0.2,0.9-0.3s0.6-0.1,1-0.1
				c0.6,0,1.1,0.1,1.6,0.3s0.8,0.5,1.1,0.8c0.3,0.4,0.5,0.8,0.7,1.3c0.2,0.5,0.2,1.1,0.2,1.7v6.9H113v-6.9c0-0.7-0.2-1.2-0.5-1.5
				s-0.8-0.5-1.4-0.5c-0.5,0-0.9,0.1-1.3,0.3c-0.4,0.2-0.8,0.5-1.1,0.8v7.8h-2.6V8.6h1.6c0.3,0,0.6,0.2,0.7,0.5L108.6,10z"/>
			<path class="st0" d="M120.1,14.4c0,0.6,0.1,1,0.3,1.4c0.2,0.4,0.4,0.7,0.6,1c0.3,0.3,0.6,0.5,0.9,0.6c0.3,0.1,0.7,0.2,1.2,0.2
				s0.8,0,1.1-0.1c0.3-0.1,0.6-0.2,0.8-0.3s0.4-0.2,0.6-0.3c0.2-0.1,0.3-0.1,0.5-0.1c0.2,0,0.4,0.1,0.5,0.2l0.7,0.9
				c-0.3,0.3-0.6,0.6-1,0.8c-0.4,0.2-0.7,0.4-1.1,0.5c-0.4,0.1-0.8,0.2-1.2,0.3c-0.4,0.1-0.8,0.1-1.2,0.1c-0.8,0-1.5-0.1-2.1-0.4
				c-0.6-0.2-1.2-0.6-1.7-1.1c-0.5-0.5-0.9-1.1-1.1-1.8c-0.3-0.7-0.4-1.6-0.4-2.5c0-0.7,0.1-1.4,0.4-2.1c0.2-0.7,0.6-1.2,1-1.7
				c0.4-0.5,1-0.9,1.6-1.1s1.4-0.4,2.2-0.4c0.7,0,1.3,0.1,1.9,0.3c0.6,0.2,1.1,0.5,1.5,1c0.4,0.4,0.7,0.9,1,1.5
				c0.2,0.6,0.4,1.3,0.4,2.1c0,0.4,0,0.7-0.1,0.8c-0.1,0.1-0.2,0.2-0.5,0.2H120.1z M125,12.8c0-0.3,0-0.7-0.1-1
				c-0.1-0.3-0.2-0.6-0.4-0.8c-0.2-0.2-0.4-0.4-0.7-0.5c-0.3-0.1-0.6-0.2-1-0.2c-0.8,0-1.3,0.2-1.8,0.6s-0.7,1-0.8,1.8H125z"/>
		</g>
		<g>
			<path class="st3" d="M41.3,26.2h-2.9v8h-1.2v-8h-2.9v-1h7.1V26.2z"/>
			<path class="st3" d="M42,29.1c0.2-0.4,0.4-0.8,0.7-1c0.3-0.2,0.7-0.4,1.1-0.4c0.1,0,0.3,0,0.4,0c0.1,0,0.2,0.1,0.3,0.1l-0.1,0.8
				c0,0.1-0.1,0.2-0.2,0.2c-0.1,0-0.1,0-0.3,0s-0.2,0-0.4,0c-0.2,0-0.4,0-0.5,0.1c-0.2,0.1-0.3,0.1-0.4,0.3
				c-0.1,0.1-0.2,0.3-0.3,0.4s-0.2,0.4-0.3,0.6v4H41v-6.4h0.6c0.1,0,0.2,0,0.3,0.1c0,0,0.1,0.1,0.1,0.2L42,29.1z"/>
			<path class="st3" d="M45.3,28.8c0.4-0.3,0.7-0.6,1.1-0.8c0.4-0.2,0.9-0.3,1.4-0.3c0.4,0,0.7,0.1,1,0.2s0.5,0.3,0.7,0.5
				c0.2,0.2,0.3,0.5,0.4,0.8c0.1,0.3,0.1,0.6,0.1,1v4.1h-0.5c-0.1,0-0.2,0-0.3-0.1c-0.1,0-0.1-0.1-0.1-0.2L49,33.4
				c-0.2,0.2-0.3,0.3-0.5,0.4c-0.2,0.1-0.3,0.2-0.5,0.3c-0.2,0.1-0.4,0.1-0.6,0.2c-0.2,0-0.4,0.1-0.7,0.1c-0.2,0-0.5,0-0.7-0.1
				c-0.2-0.1-0.4-0.2-0.6-0.3c-0.2-0.1-0.3-0.3-0.4-0.5C45,33.2,45,32.9,45,32.6c0-0.3,0.1-0.5,0.2-0.7c0.1-0.2,0.4-0.4,0.7-0.6
				c0.3-0.2,0.7-0.3,1.2-0.4s1.1-0.2,1.8-0.2v-0.5c0-0.5-0.1-0.9-0.3-1.1c-0.2-0.3-0.5-0.4-0.9-0.4c-0.3,0-0.5,0-0.7,0.1
				s-0.3,0.1-0.5,0.2c-0.1,0.1-0.3,0.2-0.4,0.2c-0.1,0.1-0.2,0.1-0.3,0.1c-0.1,0-0.1,0-0.2-0.1c-0.1,0-0.1-0.1-0.1-0.1L45.3,28.8z
				 M48.9,31.4c-0.5,0-1,0.1-1.3,0.1c-0.4,0.1-0.7,0.1-0.9,0.3c-0.2,0.1-0.4,0.2-0.5,0.4c-0.1,0.1-0.2,0.3-0.2,0.5
				c0,0.2,0,0.3,0.1,0.4c0.1,0.1,0.1,0.2,0.2,0.3c0.1,0.1,0.2,0.1,0.3,0.2c0.1,0,0.3,0.1,0.4,0.1c0.2,0,0.4,0,0.5-0.1
				c0.2,0,0.3-0.1,0.5-0.2c0.1-0.1,0.3-0.2,0.4-0.3c0.1-0.1,0.3-0.2,0.4-0.4V31.4z"/>
			<path class="st3" d="M56.1,29c0,0-0.1,0.1-0.1,0.1s-0.1,0-0.1,0c-0.1,0-0.1,0-0.2-0.1c-0.1-0.1-0.2-0.1-0.3-0.2
				c-0.1-0.1-0.2-0.1-0.4-0.2c-0.2-0.1-0.4-0.1-0.6-0.1c-0.3,0-0.6,0.1-0.8,0.2s-0.4,0.3-0.6,0.5c-0.2,0.2-0.3,0.5-0.4,0.8
				s-0.1,0.6-0.1,1c0,0.4,0,0.7,0.1,1c0.1,0.3,0.2,0.6,0.4,0.8s0.4,0.4,0.6,0.5c0.2,0.1,0.5,0.2,0.8,0.2c0.3,0,0.5,0,0.7-0.1
				c0.2-0.1,0.3-0.1,0.4-0.2s0.2-0.2,0.3-0.2c0.1-0.1,0.2-0.1,0.2-0.1c0.1,0,0.2,0,0.2,0.1l0.3,0.4c-0.1,0.2-0.3,0.3-0.5,0.4
				c-0.2,0.1-0.4,0.2-0.6,0.3c-0.2,0.1-0.4,0.1-0.6,0.2c-0.2,0-0.4,0.1-0.7,0.1c-0.4,0-0.8-0.1-1.1-0.2c-0.3-0.1-0.6-0.4-0.9-0.6
				c-0.3-0.3-0.4-0.6-0.6-1c-0.1-0.4-0.2-0.9-0.2-1.4c0-0.5,0.1-0.9,0.2-1.3c0.1-0.4,0.3-0.8,0.6-1c0.3-0.3,0.6-0.5,0.9-0.7
				c0.4-0.2,0.8-0.2,1.3-0.2c0.4,0,0.8,0.1,1.2,0.2s0.6,0.3,0.9,0.6L56.1,29z"/>
			<path class="st3" d="M58.8,25v5.5h0.3c0.1,0,0.2,0,0.2,0c0.1,0,0.1-0.1,0.2-0.1l2-2.2c0.1-0.1,0.1-0.1,0.2-0.2s0.2-0.1,0.3-0.1h1
				l-2.3,2.5c-0.1,0.1-0.2,0.3-0.4,0.3c0.1,0,0.1,0.1,0.2,0.2c0.1,0.1,0.1,0.1,0.2,0.2l2.5,3.1h-1c-0.1,0-0.2,0-0.2,0
				c-0.1,0-0.1-0.1-0.2-0.2l-2.1-2.6c-0.1-0.1-0.1-0.1-0.2-0.2s-0.2,0-0.3,0h-0.3v3h-1.1V25H58.8z"/>
			<path class="st3" d="M65.5,25.9c0,0.1,0,0.2-0.1,0.3c0,0.1-0.1,0.2-0.2,0.3c-0.1,0.1-0.2,0.1-0.3,0.2c-0.1,0-0.2,0.1-0.3,0.1
				s-0.2,0-0.3-0.1c-0.1,0-0.2-0.1-0.2-0.2S64,26.3,64,26.2c0-0.1-0.1-0.2-0.1-0.3s0-0.2,0.1-0.3c0-0.1,0.1-0.2,0.2-0.3
				s0.2-0.1,0.2-0.2c0.1,0,0.2-0.1,0.3-0.1s0.2,0,0.3,0.1c0.1,0,0.2,0.1,0.3,0.2c0.1,0.1,0.1,0.2,0.2,0.3
				C65.5,25.6,65.5,25.8,65.5,25.9z M65.3,27.9v6.4h-1.1v-6.4H65.3z"/>
			<path class="st3" d="M68.2,28.8c0.1-0.2,0.3-0.3,0.4-0.4s0.3-0.2,0.5-0.3c0.2-0.1,0.4-0.2,0.6-0.2c0.2,0,0.4-0.1,0.6-0.1
				c0.3,0,0.7,0.1,0.9,0.2c0.3,0.1,0.5,0.3,0.7,0.5c0.2,0.2,0.3,0.5,0.4,0.8c0.1,0.3,0.1,0.6,0.1,1v4.1h-1.1v-4.1
				c0-0.5-0.1-0.9-0.3-1.1c-0.2-0.3-0.6-0.4-1-0.4c-0.3,0-0.6,0.1-0.9,0.2c-0.3,0.2-0.6,0.4-0.8,0.6v4.7h-1.1v-6.4h0.7
				c0.2,0,0.3,0.1,0.3,0.2L68.2,28.8z"/>
			<path class="st3" d="M79.5,28.1v0.4c0,0.1-0.1,0.2-0.3,0.3l-0.7,0.1c0.1,0.3,0.2,0.6,0.2,0.9c0,0.3-0.1,0.6-0.2,0.8
				c-0.1,0.3-0.3,0.5-0.5,0.7c-0.2,0.2-0.5,0.3-0.8,0.4c-0.3,0.1-0.6,0.1-1,0.1c-0.3,0-0.6,0-0.8-0.1c-0.1,0.1-0.2,0.2-0.3,0.3
				c-0.1,0.1-0.1,0.2-0.1,0.3c0,0.2,0.1,0.3,0.2,0.3c0.1,0.1,0.3,0.1,0.5,0.2c0.2,0,0.4,0.1,0.7,0.1s0.5,0,0.8,0
				c0.3,0,0.5,0.1,0.8,0.1c0.3,0,0.5,0.1,0.7,0.2c0.2,0.1,0.4,0.2,0.5,0.4s0.2,0.4,0.2,0.7c0,0.3-0.1,0.5-0.2,0.8
				c-0.1,0.3-0.3,0.5-0.6,0.7s-0.6,0.4-0.9,0.5s-0.8,0.2-1.3,0.2s-0.9,0-1.2-0.1c-0.3-0.1-0.6-0.2-0.9-0.4s-0.4-0.3-0.5-0.5
				c-0.1-0.2-0.2-0.4-0.2-0.6c0-0.3,0.1-0.6,0.3-0.8c0.2-0.2,0.5-0.4,0.8-0.5c-0.2-0.1-0.3-0.2-0.4-0.3c-0.1-0.1-0.2-0.3-0.2-0.6
				c0-0.1,0-0.2,0-0.3c0-0.1,0.1-0.2,0.2-0.3c0.1-0.1,0.2-0.2,0.3-0.3c0.1-0.1,0.2-0.2,0.4-0.2c-0.3-0.2-0.6-0.4-0.7-0.7
				c-0.2-0.3-0.3-0.6-0.3-1c0-0.3,0.1-0.6,0.2-0.8c0.1-0.3,0.3-0.5,0.5-0.6c0.2-0.2,0.5-0.3,0.8-0.4c0.3-0.1,0.6-0.1,1-0.1
				c0.3,0,0.5,0,0.8,0.1c0.2,0.1,0.5,0.1,0.7,0.3H79.5z M78.4,34.6c0-0.2,0-0.3-0.1-0.4C78.2,34.1,78,34,77.9,34
				c-0.1-0.1-0.3-0.1-0.5-0.1c-0.2,0-0.4,0-0.6-0.1c-0.2,0-0.4,0-0.7,0s-0.4,0-0.7-0.1c-0.2,0.1-0.4,0.2-0.6,0.4
				c-0.1,0.2-0.2,0.4-0.2,0.6c0,0.1,0,0.3,0.1,0.4c0.1,0.1,0.2,0.2,0.3,0.3c0.2,0.1,0.3,0.2,0.6,0.2c0.2,0.1,0.5,0.1,0.8,0.1
				c0.3,0,0.6,0,0.8-0.1s0.4-0.1,0.6-0.2c0.2-0.1,0.3-0.2,0.4-0.4C78.3,34.9,78.4,34.7,78.4,34.6z M76.4,31.1c0.2,0,0.4,0,0.6-0.1
				c0.2-0.1,0.3-0.2,0.4-0.3s0.2-0.2,0.3-0.4s0.1-0.3,0.1-0.5c0-0.4-0.1-0.7-0.4-0.9s-0.6-0.3-1-0.3c-0.5,0-0.8,0.1-1,0.3
				c-0.2,0.2-0.4,0.5-0.4,0.9c0,0.2,0,0.4,0.1,0.5s0.2,0.3,0.3,0.4s0.3,0.2,0.4,0.3C75.9,31.1,76.1,31.1,76.4,31.1z"/>
		</g>
	</g>
</g>
</svg>
